<svg width="512" height="512" viewBox="0 0 512 512" fill="none" xmlns="http://www.w3.org/2000/svg">
<path d="M512 256C512 114.615 397.385 0 256 0C114.615 0 0 114.615 0 256C0 397.385 114.615 512 256 512C397.385 512 512 397.385 512 256Z" fill="#3CB53F"/>
<path d="M501.131 330.016C489.627 367.972 469.481 402.744 442.274 431.603C415.068 460.462 381.543 482.621 344.331 496.341L203.349 355.317C109.643 114.304 362.123 191.051 362.123 191.051L501.131 330.016Z" fill="url(#paint0_linear_163_68)"/>
<path d="M149.76 256C149.76 190.08 198.72 139.52 266.24 139.52C306.88 139.52 342.72 159.68 362.24 191.36L318.08 216.96C308.16 199.68 288.96 189.44 266.24 189.44C226.56 189.44 200.96 216 200.96 256C200.96 296 226.56 322.56 266.24 322.56C288.96 322.56 308.48 312.32 318.08 295.04L362.24 320.64C343.04 352.32 307.2 372.48 266.24 372.48C198.72 372.48 149.76 321.92 149.76 256Z" fill="white"/>
<defs>
<linearGradient id="paint0_linear_163_68" x1="209.013" y1="199.445" x2="441.803" y2="432.235" gradientUnits="userSpaceOnUse">
<stop stop-color="#267329"/>
<stop offset="0.25" stop-color="#2A802D"/>
<stop offset="0.71" stop-color="#36A439"/>
<stop offset="0.91" stop-color="#3CB53F"/>
</linearGradient>
</defs>
</svg>
