<svg width="512" height="512" viewBox="0 0 512 512" fill="none" xmlns="http://www.w3.org/2000/svg">
<path d="M256 21.3333C310.134 21.3782 362.588 40.1314 404.48 74.4172C446.372 108.703 475.127 156.414 485.874 209.47C496.622 262.526 488.701 317.666 463.455 365.552C438.208 413.438 397.187 451.126 347.339 472.235C289.99 496.459 225.366 496.91 167.685 473.487C110.004 450.065 63.9899 404.688 39.7653 347.339C15.5408 289.99 15.0903 225.366 38.5128 167.685C61.9354 110.004 107.312 63.9899 164.661 39.7653C193.557 27.5371 224.624 21.2679 256 21.3333ZM256 0C114.613 0 0 114.613 0 256C0 397.387 114.613 512 256 512C397.387 512 512 397.387 512 256C512 114.613 397.387 0 256 0Z" fill="#3CB53F"/>
<path d="M149.76 256C149.76 190.08 198.72 139.52 266.24 139.52C306.88 139.52 342.72 159.68 362.24 191.36L318.08 216.96C308.16 199.68 288.96 189.44 266.24 189.44C226.56 189.44 200.96 216 200.96 256C200.96 296 226.56 322.56 266.24 322.56C288.96 322.56 308.48 312.32 318.08 295.04L362.24 320.64C343.04 352.32 307.2 372.48 266.24 372.48C198.72 372.48 149.76 321.92 149.76 256Z" fill="#3CB53F"/>
</svg>
