<svg width="512" height="512" viewBox="0 0 512 512" fill="none" xmlns="http://www.w3.org/2000/svg">
<path d="M512 256C512 206.933 509.867 162.133 502.4 136.533C493.867 106.667 484.267 78.9333 457.6 54.4C425.6 25.6 396.8 16 355.2 7.46667C324.267 1.06667 288 0 265.6 0H245.333C222.933 0 186.667 1.06667 155.733 7.46667C114.133 16 85.3333 25.6 53.3333 54.4C27.7333 78.9333 19.2 106.667 9.6 136.533C2.13333 162.133 0 206.933 0 256C0 305.067 2.13333 349.867 9.6 375.467C18.1333 405.333 27.7333 433.067 54.4 457.6C86.4 486.4 115.2 496 156.8 504.533C193.067 512 235.733 512 256 512C276.267 513.067 318.933 512 355.2 504.533C396.8 496 425.6 486.4 457.6 457.6C484.267 433.067 493.867 405.333 502.4 375.467C509.867 349.867 512 305.067 512 256Z" fill="url(#paint0_linear_164_128)"/>
<path d="M279.467 104.533C309.333 104.533 368 114.133 368 150.4C368 165.333 357.333 178.133 342.4 178.133C325.333 178.133 313.6 163.2 279.467 163.2C228.267 163.2 201.6 206.933 201.6 257.067C201.6 306.133 228.267 348.8 279.467 348.8C314.667 348.8 328.533 331.733 345.6 331.733C363.733 331.733 373.333 349.867 373.333 359.467C373.333 398.933 310.4 408.533 280.533 408.533C196.267 408.533 138.667 342.4 138.667 256C136.533 170.667 194.133 104.533 279.467 104.533Z" fill="white"/>
<defs>
<linearGradient id="paint0_linear_164_128" x1="256" y1="0" x2="256" y2="512.352" gradientUnits="userSpaceOnUse">
<stop stop-color="#41FF68"/>
<stop offset="1" stop-color="#2BFF31"/>
</linearGradient>
</defs>
</svg>
