<svg width="438" height="397" viewBox="0 0 438 397" fill="none" xmlns="http://www.w3.org/2000/svg">
<path d="M321.2 59.5499L285.941 350.684H144.759L109.5 59.5499H321.2Z" fill="#1566C0"/>
<path d="M299.3 59.5499L264.041 350.684H144.759L109.5 59.5499H299.3Z" fill="#2296F3"/>
<path d="M279.831 284.516V344.066H246.324C244.41 344.08 242.577 344.768 241.214 345.985L206.831 377.15L172.448 345.985C171.084 344.768 169.252 344.08 167.338 344.066H46.2312V284.516H279.831Z" fill="#2E7D32"/>
<path d="M257.931 284.516V344.066H224.424C222.51 344.08 220.677 344.768 219.314 345.985L184.931 377.15L150.548 345.985C149.184 344.768 147.352 344.08 145.438 344.066H46.2312V284.516H257.931Z" fill="#4CAF50"/>
<path d="M301.658 276.445C301.879 279.166 301.479 281.899 300.482 284.473C299.485 287.048 297.914 289.408 295.865 291.408C293.817 293.407 291.336 295.002 288.577 296.093C285.818 297.184 282.841 297.748 279.831 297.75H47.4503C35.6577 297.979 25.635 289.987 24.3826 279.355C24.1619 276.633 24.5631 273.898 25.5612 271.323C26.5593 268.747 28.1327 266.385 30.1832 264.386C32.2338 262.386 34.7173 260.792 37.4785 259.702C40.2398 258.611 43.2194 258.049 46.2313 258.05H278.59C279.005 258.039 279.421 258.061 279.831 258.116C291.147 258.402 300.48 266.24 301.658 276.445Z" fill="#4E342E"/>
<path d="M277.334 269.827C277.555 272.549 277.154 275.282 276.156 277.857C275.159 280.432 273.587 282.792 271.538 284.791C269.489 286.791 267.007 288.386 264.248 289.477C261.489 290.568 258.511 291.132 255.5 291.133H45.0481C33.2555 291.362 23.2328 283.37 21.9804 272.738C21.7596 270.018 22.1598 267.285 23.156 264.711C24.1522 262.137 25.7231 259.777 27.7705 257.778C29.8179 255.778 32.298 254.183 35.0559 253.091C37.8139 252 40.7905 251.435 43.8 251.432H254.259C254.674 251.421 255.09 251.443 255.5 251.498C266.819 251.783 276.156 259.62 277.334 269.827Z" fill="#795548"/>
<path d="M277.4 205.116V251.499C276.989 251.445 276.574 251.422 276.159 251.434H170.893C168.979 251.447 167.147 252.136 165.783 253.353L124.1 291.134L82.4176 253.353C81.0541 252.136 79.2215 251.447 77.3079 251.434H43.8V205.117H277.4V205.116Z" fill="#FDD834"/>
<path d="M255.5 208.425V254.808C255.089 254.753 254.674 254.731 254.259 254.742H148.993C147.079 254.756 145.247 255.444 143.883 256.661L113.15 284.517L82.4176 256.661C81.0541 255.444 79.2215 254.756 77.3079 254.742H43.8V208.425H255.5Z" fill="#FFEB3A"/>
<path d="M301.73 211.734V218.35C301.73 220.105 300.961 221.788 299.592 223.028C298.223 224.269 296.367 224.966 294.431 224.966H31.6308C29.6948 224.966 27.8381 224.269 26.4691 223.028C25.1001 221.788 24.3311 220.105 24.3311 218.35V211.734C24.3311 175.191 57.0142 145.567 97.3307 145.567H228.731C269.047 145.566 301.73 175.19 301.73 211.734Z" fill="#F57C00"/>
<path d="M272.531 211.734V218.35C272.531 220.105 271.762 221.788 270.393 223.028C269.024 224.269 267.167 224.966 265.231 224.966H31.6308C29.6948 224.966 27.8381 224.269 26.4691 223.028C25.1001 221.788 24.3311 220.105 24.3311 218.35V211.734C24.3311 175.191 57.0142 145.567 97.3307 145.567H199.531C239.848 145.566 272.531 175.19 272.531 211.734ZM272.531 337.45V357.3C272.531 379.226 252.921 397 228.731 397H68.131C43.941 397 24.3311 379.226 24.3311 357.3V337.45C24.3311 336.581 24.5199 335.721 24.8867 334.918C25.2536 334.115 25.7913 333.386 26.4691 332.771C27.1469 332.157 27.9516 331.67 28.8373 331.337C29.7229 331.005 30.6722 330.834 31.6308 330.834H167.338C169.252 330.847 171.084 331.536 172.448 332.753L206.831 363.917L241.214 332.753C242.577 331.536 244.41 330.847 246.323 330.834H265.23C266.189 330.833 267.138 331.005 268.024 331.337C268.91 331.669 269.714 332.157 270.392 332.771C271.07 333.386 271.608 334.115 271.975 334.918C272.342 335.721 272.531 336.581 272.531 337.45Z" fill="#FF9801"/>
<path d="M313.899 19.8499V46.3163H116.8V19.8499C116.824 12.5504 123.346 6.63804 131.4 6.61633H299.3C307.353 6.63804 313.876 12.5504 313.899 19.8499Z" fill="#CFD8DC"/>
<path d="M335.8 46.3165V59.5501C335.8 61.3049 335.031 62.9878 333.662 64.2286C332.293 65.4694 330.436 66.1665 328.5 66.1665H102.2C100.264 66.1665 98.4076 65.4694 97.0387 64.2286C95.6697 62.9878 94.9006 61.3049 94.9006 59.5501V46.3165C94.9246 39.017 101.448 33.1046 109.501 33.0829H321.201C329.254 33.1054 335.776 39.017 335.8 46.3165Z" fill="#CFD8DC"/>
<path d="M292 19.8499V46.3163H94.8997C94.9236 39.0168 101.447 33.1045 109.5 33.0827H116.8V19.8499C116.824 12.5504 123.347 6.63804 131.4 6.61633H277.4C285.454 6.63804 291.976 12.5504 292 19.8499Z" fill="#F4F4F4"/>
<path d="M313.9 46.3165V59.5501C313.9 60.419 313.711 61.2793 313.344 62.0821C312.977 62.8848 312.44 63.6142 311.762 64.2286C311.084 64.843 310.279 65.3303 309.393 65.6628C308.508 65.9953 307.559 66.1665 306.6 66.1665H102.2C100.264 66.1665 98.4076 65.4694 97.0387 64.2286C95.6697 62.9878 94.9006 61.3049 94.9006 59.5501V46.3165C94.9246 39.017 101.448 33.1046 109.501 33.0829H299.301C307.354 33.1054 313.876 39.017 313.9 46.3165Z" fill="#F4F4F4"/>
<path d="M416.027 224.305L387.922 390.384H225.205L197.173 224.372C196.948 223.106 197.248 221.81 198.017 220.735C198.786 219.659 199.968 218.88 201.334 218.549C201.831 218.414 202.348 218.347 202.867 218.351H209.145C210.021 218.351 210.824 218.417 211.7 218.483L372.884 219.74L392.521 219.873H394.201C397.367 218.865 400.7 218.351 404.056 218.351H410.26C411.092 218.339 411.916 218.491 412.676 218.796C413.436 219.101 414.114 219.553 414.663 220.119C415.211 220.686 415.617 221.353 415.853 222.076C416.089 222.799 416.148 223.559 416.027 224.305Z" fill="#C52828"/>
<path d="M394.127 224.305L366.022 390.384H225.205L197.173 224.372C196.948 223.106 197.248 221.811 198.017 220.735C198.786 219.659 199.968 218.88 201.334 218.549L372.3 219.873C372.485 219.798 372.682 219.753 372.884 219.74C375.866 218.808 379 218.339 382.155 218.351H388.36C389.91 218.361 391.397 218.905 392.521 219.873C393.158 220.443 393.636 221.142 393.916 221.913C394.195 222.684 394.268 223.504 394.127 224.305Z" fill="#F44335"/>
<path d="M321.265 274.658C308.947 276.455 296.354 275.96 284.254 273.203L284.7 271.284V157.345C284.702 155.976 285.303 154.665 286.37 153.697C287.437 152.73 288.884 152.185 290.394 152.184H315.506C317.016 152.185 318.463 152.73 319.53 153.697C320.598 154.665 321.198 155.976 321.2 157.345V274.195L321.265 274.658ZM248.2 191.884V253.087C243.05 247.555 238.932 241.297 236.008 234.561C233.996 230.104 230.658 226.241 226.366 223.402C222.074 220.563 216.996 218.86 211.699 218.483V197.045C211.701 195.676 212.302 194.365 213.369 193.397C214.437 192.43 215.884 191.885 217.393 191.884H248.2Z" fill="#FFB301"/>
<path d="M284.7 163.498V269.364L284.262 271.284H284.189C270.122 268.254 257.504 261.201 248.2 251.169V168.659C248.202 167.291 248.803 165.979 249.87 165.012C250.938 164.044 252.385 163.5 253.894 163.498H284.7ZM358.43 259.108C348.017 267.513 335.084 272.924 321.273 274.657L321.2 274.194V165.416H350.4C352.336 165.416 354.193 166.113 355.561 167.354C356.93 168.595 357.7 170.278 357.7 172.033V258.314L358.43 259.108Z" fill="#FDD834"/>
<path d="M394.2 190.427V219.871C390.375 221.082 386.879 223.018 383.946 225.551C381.013 228.085 378.71 231.156 377.191 234.56C373.155 243.95 366.756 252.356 358.503 259.108H358.43L357.7 258.314V185.266H388.507C390.016 185.268 391.463 185.813 392.53 186.78C393.597 187.748 394.198 189.059 394.2 190.427Z" fill="#FFB301"/>
<path d="M335.8 334.141C335.8 350.586 321.092 363.916 302.95 363.916C299.217 363.927 295.511 363.345 292 362.196C285.608 360.136 280.077 356.333 276.166 351.31C272.255 346.287 270.155 340.29 270.155 334.141C270.155 327.993 272.255 321.996 276.166 316.972C280.077 311.949 285.608 308.147 292 306.087C295.511 304.939 299.217 304.356 302.95 304.366C321.092 304.366 335.8 317.698 335.8 334.141Z" fill="#CFD8DC"/>
<path d="M292 362.196C304.095 362.196 313.9 349.635 313.9 334.141C313.9 318.647 304.095 306.087 292 306.087C279.905 306.087 270.1 318.647 270.1 334.141C270.1 349.635 279.905 362.196 292 362.196Z" fill="#F4F4F4"/>
<path d="M94.8996 178.65H102.199C104.135 178.65 105.992 177.953 107.361 176.712C108.73 175.471 109.499 173.788 109.499 172.034C109.499 170.279 108.73 168.596 107.361 167.355C105.992 166.114 104.135 165.417 102.199 165.417H94.8996C92.9636 165.417 91.1069 166.114 89.7379 167.355C88.3689 168.596 87.5999 170.279 87.5999 172.034C87.5999 173.788 88.3689 175.471 89.7379 176.712C91.1069 177.953 92.9636 178.65 94.8996 178.65ZM138.7 191.884H145.999C147.935 191.884 149.792 191.187 151.161 189.946C152.53 188.705 153.299 187.022 153.299 185.267C153.299 183.512 152.53 181.83 151.161 180.589C149.792 179.348 147.935 178.651 145.999 178.651H138.7C136.764 178.651 134.907 179.348 133.538 180.589C132.169 181.83 131.4 183.512 131.4 185.267C131.4 187.022 132.169 188.705 133.538 189.946C134.907 191.187 136.764 191.884 138.7 191.884ZM182.5 178.65H189.799C191.735 178.65 193.592 177.953 194.961 176.712C196.33 175.471 197.099 173.788 197.099 172.034C197.099 170.279 196.33 168.596 194.961 167.355C193.592 166.114 191.735 165.417 189.799 165.417H182.5C180.564 165.417 178.707 166.114 177.338 167.355C175.969 168.596 175.2 170.279 175.2 172.034C175.2 173.788 175.969 175.471 177.338 176.712C178.707 177.953 180.564 178.65 182.5 178.65Z" fill="black"/>
<path d="M430.7 383.766H396.434L423.262 225.251C423.809 221.863 422.697 218.426 420.218 215.842C418.981 214.549 417.452 213.513 415.734 212.804C414.016 212.095 412.149 211.73 410.261 211.734H404.005C403.144 211.734 402.319 211.853 401.472 211.899V190.427C401.468 183.934 395.67 178.668 388.508 178.65H365.002V165.416C365.002 163.662 364.233 161.979 362.864 160.738C361.495 159.497 359.638 158.8 357.702 158.8H328.5V157.345C328.494 154.67 327.485 152.077 325.638 149.991C323.792 147.905 321.218 146.45 318.339 145.865L327.697 72.7836H335.8C337.736 72.7836 339.593 72.0865 340.962 70.8457C342.331 69.6049 343.1 67.922 343.1 66.1672V46.3172C343.1 35.3547 333.295 26.4672 321.2 26.4672V19.85C321.2 8.88753 311.395 0 299.3 0H131.4C119.305 0 109.5 8.88753 109.5 19.85V26.4664C97.4053 26.4664 87.6 35.3539 87.6 46.3164V66.1664C87.6 67.0353 87.7888 67.8957 88.1556 68.6984C88.5225 69.5011 89.0602 70.2305 89.738 70.8449C90.4158 71.4593 91.2206 71.9467 92.1062 72.2792C92.9918 72.6117 93.9411 72.7828 94.8997 72.7828H103.003L110.645 132.333H94.8997C50.5727 132.38 14.6516 164.939 14.5994 205.116V211.733C14.5994 219.042 21.1361 224.966 29.1997 224.966H36.4994V245.756C22.823 248.863 13.6096 260.454 14.6867 273.196C15.2231 278.653 17.6065 283.828 21.5109 288.011C25.4154 292.194 30.6502 295.182 36.4994 296.566V317.6H29.1997C21.1361 317.6 14.5994 323.525 14.5994 330.834V350.684C14.5987 356.851 15.9613 362.956 18.6068 368.638C21.2522 374.321 25.1269 379.465 30.0021 383.767H7.29971C5.36371 383.767 3.507 384.464 2.13804 385.705C0.769075 386.946 0 388.629 0 390.384C0 392.138 0.769075 393.821 2.13804 395.062C3.507 396.303 5.36371 397 7.29971 397H430.699C432.635 397 434.492 396.303 435.861 395.062C437.23 393.821 437.999 392.138 437.999 390.384C437.999 389.515 437.811 388.654 437.444 387.851C437.077 387.049 436.54 386.319 435.862 385.705C435.184 385.09 434.379 384.603 433.494 384.27C432.608 383.938 431.659 383.766 430.7 383.766ZM408.538 224.966L381.666 383.767H231.475L204.655 224.966L209.116 224.967C213.406 224.941 217.607 226.071 221.187 228.214C224.767 230.357 227.563 233.416 229.22 237.003C232.429 244.37 236.93 251.218 242.55 257.283C242.808 257.611 243.102 257.914 243.426 258.19C251.383 266.138 261.159 272.415 272.071 276.582C282.983 280.749 294.767 282.705 306.6 282.314C343.1 282.314 371.278 265.773 383.98 236.997C385.635 233.419 388.423 230.366 391.993 228.225C395.562 226.083 399.752 224.95 404.033 224.967L408.538 224.966ZM313.9 158.8V268.677C311.483 268.849 309.096 269.081 306.6 269.081C301.703 269.052 296.819 268.642 292 267.856V158.8H313.9ZM277.4 172.034V264.203C269.052 261.176 261.565 256.478 255.5 250.46V172.034H277.4ZM240.9 228.652C238.603 224.837 235.479 221.483 231.716 218.79C227.952 216.098 223.627 214.122 219 212.984V198.5H240.9V228.652ZM199.947 284.516H141.715L170.915 258.05H195.501L199.947 284.516ZM386.9 191.884V215.597C379.393 219.124 373.532 224.975 370.38 232.086C368.887 235.418 367.088 238.629 365 241.687V191.884H386.9ZM350.4 172.034V256.515C343.897 261.117 336.454 264.507 328.5 266.492V172.034H350.4ZM124.1 19.85C124.1 18.0952 124.869 16.4123 126.238 15.1715C127.607 13.9307 129.464 13.2336 131.4 13.2336H299.3C301.236 13.2336 303.093 13.9307 304.462 15.1715C305.831 16.4123 306.6 18.0952 306.6 19.85V26.4664H124.1V19.85ZM102.2 46.3164C102.2 44.5616 102.969 42.8787 104.338 41.6379C105.707 40.3971 107.564 39.7 109.5 39.7H321.2C323.136 39.7 324.993 40.3971 326.362 41.6379C327.731 42.8787 328.5 44.5616 328.5 46.3164V59.55H102.2V46.3164ZM117.698 72.7836H313.002L303.68 145.567H290.394C288.254 145.569 286.148 146.049 284.262 146.966C282.376 147.882 280.769 149.206 279.582 150.82C265.829 139.601 248.182 133.093 229.694 132.42C228.562 132.334 227.431 132.334 226.3 132.334H125.341L117.698 72.7836ZM29.1997 205.116C29.2442 172.244 58.633 145.607 94.8997 145.566H226.3C227.066 145.566 227.825 145.566 228.869 145.626C242.963 146.12 256.5 150.743 267.45 158.8H253.894C246.72 158.804 240.904 164.074 240.901 170.577V185.266H217.395C210.22 185.27 204.405 190.541 204.401 197.044V211.733H29.2014V205.116H29.1997ZM189.931 224.966V225.343L193.245 244.816H170.893C167.034 244.819 163.334 246.206 160.6 248.674L124.099 281.758L87.6 248.674C84.8661 246.206 81.1655 244.819 77.307 244.816H51.0997V224.966H189.931ZM29.251 272.243C29.0808 270.348 29.3718 268.443 30.1034 266.662C30.8349 264.88 31.9893 263.266 33.4847 261.934C34.8345 260.699 36.4415 259.72 38.2123 259.054C39.9831 258.387 41.8825 258.046 43.8 258.05H77.2556L106.455 284.516H45.0413C37.0803 284.71 30.2536 279.403 29.251 272.243ZM51.0997 297.75H202.21L209.86 343.021L204.4 347.944L175.2 321.478C172.47 319.002 168.769 317.608 164.907 317.6H51.0997V297.75ZM29.1997 350.684V330.834H164.841L199.224 361.998C200.593 363.238 202.449 363.935 204.385 363.935C206.321 363.935 208.177 363.238 209.546 361.998L212.554 359.272L216.7 383.753H65.7C45.5571 383.732 29.2322 368.941 29.1997 350.684Z" fill="black"/>
<path d="M302.95 297.75C295.008 297.75 287.246 299.884 280.643 303.883C274.04 307.882 268.894 313.565 265.855 320.215C262.816 326.865 262.02 334.182 263.57 341.242C265.119 348.301 268.943 354.786 274.558 359.875C280.173 364.965 287.327 368.431 295.116 369.835C302.904 371.239 310.977 370.519 318.314 367.764C325.651 365.009 331.921 360.345 336.333 354.36C340.745 348.375 343.099 341.339 343.099 334.141C343.075 314.053 325.114 297.772 302.95 297.75ZM302.95 357.3C288.839 357.3 277.399 346.931 277.399 334.141C277.399 321.351 288.839 310.983 302.95 310.983C317.06 310.983 328.5 321.351 328.5 334.141C328.5 346.931 317.06 357.3 302.95 357.3Z" fill="black"/>
</svg>
